# xmcd
#
# Track frame offsets: 
#        150
#        25286
#        50800
#        77397
#        96499
#        117579
#        141578
#        158164
#        174101
#        193417
#        214103
#        227953
#        248028
#        266927
#
# Disc length: 3869 seconds
#
# Revision: 0
# Processed by: cddbd v1.5.2PL0 Copyright (c) Steve Scherf et al.
# Submitted via: ExactAudioCopyFreeDBPlugin 1.0
#
DISCID=d20f1b0e
DTITLE=The Louisiana Blues Brothas - Love On The Bayou
DYEAR=2014
DGENRE=Blues
TTITLE0=Who You With
TTITLE1=The Louisiana Blues Brothas feat. Rena' - Devil In My Bedroom
TTITLE2=Pouring Water
TTITLE3=Cellphone
TTITLE4=The Louisiana Blues Brothas feat. Major Clark Jr. - My Sidepie
TTITLE4=ce
TTITLE5=The Gingerbread Man
TTITLE6=Backdoor Lover
TTITLE7=Pickin These Blues Awy
TTITLE8=Cab On The Outside
TTITLE9=Chick On The Side Remix
TTITLE10=No Matter How Long
TTITLE11=The Louisiana Blues Brothas feat. Jwonn - Is It Love
TTITLE12=The Louisiana Blues Brothas feat. Ms. Portia - I'm Still Wear
TTITLE12=ing Your Name
TTITLE13=The Louisiana Blues Brothas feat. Tucka - They Call Me Pokey 
TTITLE13=Remix
EXTD=
EXTT0=
EXTT1=
EXTT2=
EXTT3=
EXTT4=
EXTT5=
EXTT6=
EXTT7=
EXTT8=
EXTT9=
EXTT10=
EXTT11=
EXTT12=
EXTT13=
PLAYORDER=
